<?xml version="1.0" encoding="UTF-8" standalone="no"?> <svg xmlns="http://www.w3.org/2000/svg" xmlns:xlink="http://www.w3.org/1999/xlink" xmlns:serif="http://www.serif.com/" width="100%" height="100%" viewBox="0 0 1272 1557" version="1.1" xml:space="preserve" style="fill-rule:evenodd;clip-rule:evenodd;stroke-linejoin:round;stroke-miterlimit:2;"><g><path d="M874.41,1358.49c-0,38.128 -31.774,69.902 -69.902,69.902c-38.129,-0 -69.902,-31.774 -69.902,-69.902c-0,-109.301 -88.966,-198.267 -198.268,-198.267c-109.301,-0 -198.267,88.966 -198.267,198.267c0,38.128 -31.773,69.902 -69.902,69.902c-38.128,-0 -69.902,-31.774 -69.902,-69.902c0,-109.301 -88.966,-198.267 -198.267,-198.267l0,128.365c38.128,0 69.902,31.774 69.902,69.902c-0,109.301 88.966,198.267 198.267,198.267c109.301,0 198.267,-88.966 198.267,-198.267c0,-38.128 31.774,-69.902 69.902,-69.902c38.129,0 69.902,31.774 69.902,69.902c0,109.301 88.966,198.267 198.268,198.267c109.301,0 198.267,-88.966 198.267,-198.267c-0,-19.064 7.626,-36.857 21.606,-49.567c11.438,-12.709 29.232,-20.335 48.296,-20.335c15.251,0 30.502,5.084 41.941,13.98c16.522,13.981 27.961,33.045 27.961,55.922l128.365,-0c0,-109.301 -88.966,-198.267 -198.267,-198.267c-109.301,-0 -198.267,88.966 -198.267,198.267Z" style="fill:url(#_Linear1);fill-rule:nonzero;"></path></g><g><path d="M1002.16,177.462l-117.818,-117.818l0,0.538l-58.639,-58.64l-92.533,92.533l176.457,176.457l-47.342,47.881l-0.538,-0l-128.577,128.577l92.533,92.533l176.457,-176.458l47.88,47.342l0,0.538l128.578,128.578l92.532,-92.533l-176.457,-176.458l176.457,-176.457l-92.532,-92.533l-176.458,175.92Zm-42.5,93.07l41.424,-41.424l40.887,41.424l-40.887,41.425l-41.424,-41.425Z" style="fill:url(#_Linear2);fill-rule:nonzero;"></path></g><g><path d="M1001.67,880.59l-80.306,-80.315l80.306,-80.302l80.373,80.302l-80.373,80.315Zm92.082,-261.517l-0,-80.831l-183.679,-0l-0,80.884l-143.897,395.271l127.586,42.49l27.602,-75.73l161.235,0.147l27.517,75.392l127.675,-42.397l-144.039,-395.226Z" style="fill:#116a30;fill-rule:nonzero;"></path></g><g><path d="M562.096,572.67l-185.969,0.538l-0.071,45.18l71.622,0l-0,48.631l-71.622,0l0.071,45.71l185.969,0l0,-45.71l-73.667,0l-0,-48.631l73.667,0l0,-45.718Z" style="fill:#2b2523;fill-rule:nonzero;"></path></g><g><path d="M377.706,42.089c-7.662,41.6 11.828,71.288 44.815,77.509c15.462,2.899 28.403,1.094 38.6,-5.723c9.898,-6.622 17.507,-17.979 22.754,-33.685l7.124,-21.519c1.859,-5.776 4.269,-9.303 7.017,-11.179c3.264,-2.041 7.018,-2.397 11.327,-1.583c10.419,2.001 14.692,11.535 11.428,29.247c-2.712,14.657 -9.067,30.683 -20.22,38.403l0.036,0.045l42.21,15.528c9.138,-12.713 14.19,-28.193 17.525,-46.265c7.07,-38.501 -7.066,-74.366 -43.86,-81.267c-16.778,-3.18 -30.884,-1.859 -42.108,6.128c-9.031,6.265 -16.257,17.12 -21.589,33.147l-7.106,21.478c-1.926,6.261 -4.932,9.699 -7.627,11.575c-3.348,2.313 -6.755,2.442 -9.049,2.042c-7.885,-1.503 -15.582,-9.579 -12.678,-25.25c1.476,-7.938 3.508,-23.195 16.951,-32.596l-40.853,-15.026c-7.16,10.571 -11.816,23.427 -14.697,38.991" style="fill:#2b2523;fill-rule:nonzero;"></path></g><g><path d="M377.706,969.848c-7.662,41.588 11.828,71.271 44.815,77.456c15.462,2.953 28.403,1.13 38.6,-5.723c9.898,-6.626 17.507,-17.925 22.754,-33.689l7.124,-21.479c1.859,-5.759 4.269,-9.303 7.017,-11.162c3.264,-2.041 6.982,-2.414 11.327,-1.601c10.419,1.966 14.692,11.545 11.41,29.288c-2.694,14.621 -9.049,30.643 -20.202,38.363l0.036,0.053l42.21,15.529c9.138,-12.758 14.19,-28.242 17.525,-46.266c7.07,-38.501 -7.066,-74.374 -43.86,-81.311c-16.778,-3.135 -30.919,-1.823 -42.108,6.168c-9.067,6.27 -16.257,17.116 -21.589,33.098l-7.106,21.523c-1.926,6.261 -4.932,9.676 -7.627,11.575c-3.348,2.322 -6.755,2.451 -9.049,2.041c-7.885,-1.494 -15.582,-9.578 -12.678,-25.236c1.476,-8 3.473,-23.199 16.951,-32.609l-40.853,-15.075c-7.16,10.628 -11.816,23.475 -14.697,39.057" style="fill:#2b2523;fill-rule:nonzero;"></path></g><g><path d="M498.866,445.315l-28.816,28.825l-28.767,-28.825l28.767,-28.785l28.816,28.785Zm-93.785,-33.005l-29.007,0l-0,65.872l29.007,0l141.78,51.58l15.253,-45.719l-27.206,-9.903l0.071,-57.841l27.01,-9.85l-15.164,-45.763l-141.744,51.624Z" style="fill:#2b2523;fill-rule:nonzero;"></path></g><g><path d="M498.746,756.313l-0.036,0l-0.938,-0.089l0.836,2.459l-0,-0.493l-0,0.493l20.705,56.836c-0,-0 1.32,3.042 1.738,4.78l0.174,0.494l-0.036,0.044c0.311,1.597 0.485,3.22 0.485,4.896c-0,12.767 -10.353,23.12 -23.12,23.12l-59.566,-0c-12.78,-0 -23.137,-10.353 -23.137,-23.12c0,-12.713 10.215,-23.017 22.862,-23.155l-0,-46.167c-35.193,3.5 -62.657,33.143 -62.657,69.247c-0,38.403 31.128,69.549 69.572,69.549l47.074,0l0,-0.04c38.337,-0.044 69.394,-31.199 69.394,-69.509c0,-36.322 -27.846,-66.165 -63.35,-69.292l-0,-0.053Z" style="fill:#2b2523;fill-rule:nonzero;"></path></g><g><path d="M562.096,211.809l-93.505,59.521l93.505,0l0,45.728l-185.92,-0l-0,-39.96l93.456,-59.566l-76.936,-0l-16.64,-45.674l186.04,-0l0,39.951Z" style="fill:#2b2523;fill-rule:nonzero;"></path></g><g><path d="M144.142,1.546l-0,65.792l-32.031,0l-0,-48.351l-38.217,0l0,48.351l-31.995,0l-0,-66.832l-41.899,-0l0,120.551l186.005,-0l-0,-109.011l-41.863,-10.5Z" style="fill:#2b2523;fill-rule:nonzero;"></path></g><g><path d="M1.668,212.809c-7.662,41.588 11.811,71.28 44.815,77.51c15.444,2.899 28.385,1.085 38.599,-5.777c9.868,-6.586 17.459,-17.925 22.755,-33.689l7.088,-21.461c1.842,-5.777 4.323,-9.276 7.018,-11.18c3.281,-2.041 7.017,-2.405 11.344,-1.592c10.401,1.957 14.674,11.536 11.446,29.239c-2.713,14.666 -9.103,30.692 -20.22,38.412l0.036,0.044l42.192,15.529c9.12,-12.705 14.194,-28.233 17.529,-46.266c7.049,-38.492 -7.106,-74.374 -43.864,-81.311c-16.76,-3.126 -30.901,-1.814 -42.107,6.177c-9.014,6.261 -16.276,17.107 -21.572,33.089l-7.124,21.523c-1.926,6.27 -4.914,9.677 -7.622,11.575c-3.335,2.322 -6.777,2.459 -9.036,2.041c-7.885,-1.534 -15.582,-9.623 -12.678,-25.24c1.44,-7.987 3.473,-23.186 16.951,-32.605l-40.853,-15.021c-7.16,10.583 -11.816,23.386 -14.697,39.003" style="fill:#2b2523;fill-rule:nonzero;"></path></g><g><path d="M122.792,811.757l-28.816,28.785l-28.767,-28.785l28.767,-28.843l28.816,28.843Zm-93.785,-33.063l-29.007,0l-0,65.885l29.007,0l141.78,51.624l15.218,-45.771l-27.135,-9.89l0.035,-57.792l27.028,-9.903l-15.181,-45.763l-141.745,51.61Z" style="fill:#2b2523;fill-rule:nonzero;"></path></g><g><path d="M122.792,609.486l-28.816,28.793l-28.767,-28.793l28.767,-28.834l28.816,28.834Zm-93.785,-33.059l-29.007,0l-0,65.89l29.007,-0l141.78,51.579l15.218,-45.727l-27.135,-9.89l0.035,-57.801l27.028,-9.894l-15.181,-45.763l-141.745,51.606Z" style="fill:#2b2523;fill-rule:nonzero;"></path></g><g><path d="M0,925.668l0,123.273l46.812,-16.303l0,-48.222l103.689,67.424l35.504,0l-0,-132.477l-40.752,14.025l0,0.138l-6.025,2.13l-0,57.619l-103.688,-67.607l-35.54,0Z" style="fill:#2b2523;fill-rule:nonzero;"></path></g><g><path d="M186.005,378.887l-93.456,59.567l93.456,-0l-0,45.683l-185.885,-0l0,-39.911l93.456,-59.58l-76.798,0l-16.658,-45.669l185.885,-0l-0,39.91Z" style="fill:#2b2523;fill-rule:nonzero;"></path></g><g><rect x="275.881" y="1.546" width="16.64" height="1055.34" style="fill:#2b2523;"></rect></g><g><path d="M1246.72,1517.53c0,-5.31 -4.073,-6.551 -8.231,-6.551l-5.576,0l-0,13.368l5.576,-0c4.425,-0 8.231,-1.33 8.231,-6.817m4.163,0.089c-0,6.639 -4.692,9.116 -8.236,9.827l10.357,16.022l-5.043,0l-9.65,-15.582l-5.398,0l-0,15.582l-3.9,0l-0,-36.028l9.387,-0c4.247,-0 12.483,0.707 12.483,10.179m16.64,7.791c0,-15.138 -12.66,-27.887 -27.886,-27.887c-15.133,0 -27.882,12.749 -27.882,27.887c-0,15.137 12.749,27.882 27.882,27.882c15.137,-0 27.886,-12.745 27.886,-27.882m-27.886,-31.516c17.618,0 31.515,13.897 31.515,31.516c-0,17.614 -13.897,31.515 -31.515,31.515c-17.526,-0 -31.511,-13.901 -31.511,-31.515c-0,-17.619 13.985,-31.516 31.511,-31.516" style="fill:#1772b8;fill-rule:nonzero;"></path></g><defs><linearGradient id="_Linear1" x1="0" y1="0" x2="1" y2="0" gradientUnits="userSpaceOnUse" gradientTransform="matrix(1270.94,0,0,-1270.94,8.52651e-14,1358.49)"><stop offset="0" style="stop-color:#28a499;stop-opacity:1"></stop><stop offset="1" style="stop-color:#1771b8;stop-opacity:1"></stop></linearGradient><linearGradient id="_Linear2" x1="0" y1="0" x2="1" y2="0" gradientUnits="userSpaceOnUse" gradientTransform="matrix(0,-537.981,-537.981,0,1002.16,539.523)"><stop offset="0" style="stop-color:#e94f1c;stop-opacity:1"></stop><stop offset="0.99" style="stop-color:#cf181d;stop-opacity:1"></stop><stop offset="1" style="stop-color:#cf181d;stop-opacity:1"></stop></linearGradient></defs></svg> 